<svg xmlns="http://www.w3.org/2000/svg" xmlns:xlink="http://www.w3.org/1999/xlink" viewBox="0 0 480 640" version="1.0"><defs><linearGradient id="a"><stop offset="0" stop-color="#e0e6f0"/><stop offset=".5" stop-color="#f4f6fa"/><stop offset="1" stop-color="#cbd6e5"/></linearGradient><linearGradient id="h" y2="176.36" gradientUnits="userSpaceOnUse" x2="227.91" gradientTransform="translate(-11.557 -13.118) scale(1.1345)" y1="184.94" x1="574.04"><stop offset="0" stop-color="#4e72cf"/><stop offset="1" stop-color="#6495ed"/></linearGradient><linearGradient id="g" y2="111.53" gradientUnits="userSpaceOnUse" x2="513.16" gradientTransform="matrix(1.1345 0 0 .84271 -11.557 40.629)" y1="165.57" x1="273.36"><stop offset="0" stop-color="#316de5"/><stop offset="1" stop-color="#a3d1f7"/></linearGradient><linearGradient id="f" y2="159.44" gradientUnits="userSpaceOnUse" x2="526.8" gradientTransform="matrix(1.1345 0 0 .84271 -11.557 40.629)" y1="249.85" x1="249.12"><stop offset="0" stop-color="#3060dd"/><stop offset="1" stop-color="#78c0e7"/></linearGradient><linearGradient id="e" y2="228.81" gradientUnits="userSpaceOnUse" x2="211.16" gradientTransform="matrix(1.1496 0 0 1.2154 -17.179 -26.947)" y1="189.06" x1="548.02"><stop offset="0" stop-color="#94a9cc"/><stop offset=".5" stop-color="#e8ecf5"/><stop offset="1" stop-color="#c4d2e2"/></linearGradient><linearGradient id="d" y2="488.47" gradientUnits="userSpaceOnUse" x2="479.73" gradientTransform="translate(-11.558 18.649) scale(1.1345)" y1="216.18" x1="489.74"><stop offset="0" stop-color="#fff"/><stop offset="1" stop-color="#fff" stop-opacity="0"/></linearGradient><linearGradient id="c" y2="589.82" xlink:href="#a" spreadMethod="reflect" gradientUnits="userSpaceOnUse" x2="310.53" gradientTransform="matrix(1.0791 0 0 .96445 9.077 115.43)" y1="485.78" x1="280.62"/><linearGradient id="b" y2="404.45" xlink:href="#a" gradientUnits="userSpaceOnUse" x2="196.97" gradientTransform="translate(-11.557 18.649) scale(1.1345)" y1="394.45" x1="565.69"/></defs><g fill-rule="evenodd"><path d="M240.02 30.338c-124.5 0-228.64 29.53-228.64 69.52 0 65.59 3.13 63.11 5.6 79.46l30.5 355.49c0 41.33 86.26 74.85 192.54 74.85 106.27 0 192.49-33.52 192.49-74.85l30.51-355.49c3.84-16.32 5.59-52.94 5.59-79.46 0-39.93-104.1-69.52-228.59-69.52z"/><path d="M410.55 162.59c-121.27 0-219.7 26.94-219.7 74.1 0 7.52 3.79 21.77 3.79 21.77s1.88 6.61 1.88 10c-.01 1.43.15 2.86.28 4.29l28.08 342.87c0 39.85 83.19 72.18 185.67 72.18 102.49 0 185.64-32.33 185.64-72.18l28.08-342.87c.16-1.43.24-2.86.28-4.29 0-3.39 1.88-10 1.88-10s3.8-14.25 3.8-21.77c0-47.16-98.4-74.1-219.68-74.1z" fill="url(#b)" transform="translate(-170.54 -86.892)"/><path d="M587.12 622.9c0 33.88-79.11 61.38-176.58 61.38-97.48 0-176.58-27.5-176.58-61.38s79.1-61.37 176.58-61.37c97.47 0 176.58 27.49 176.58 61.37z" opacity=".6" fill="url(#c)" transform="translate(-170.54 -86.892)"/><path d="M433.6 162.95c-22.72 40.06-34.03 88.31-29.53 139.22 10.13 114.79 96.98 203.66 200.45 211.7l20.03-245.41c0-3.39 1.88-10 1.88-10s3.8-14.25 3.8-21.77c0-44.13-86.19-70.53-196.63-73.74z" fill="url(#d)" transform="translate(-170.54 -86.892)"/><path d="M410.56 127.94c-110.7 0-202.01 25.69-214.48 59.97.9 34.95 96.64 63.24 214.48 63.24 117.83 0 213.53-28.29 214.44-63.24-12.48-34.28-103.75-59.97-214.44-59.97z" fill="url(#e)" transform="translate(-170.54 -86.892)"/><path d="M410.55 125.65c-121.27 0-219.7 28.43-219.7 63.46v45.24c0 35.03 98.43 63.46 219.7 63.46 121.28 0 219.68-28.43 219.68-63.46v-45.24c0-35.03-98.4-63.46-219.68-63.46zm0 5.81c109.24 0 199.32 23.98 211.63 55.98-.89 32.63-95.34 59.03-211.63 59.03-116.28 0-210.76-26.4-211.65-59.03 12.3-32 102.42-55.98 211.65-55.98z" fill="url(#f)" transform="translate(-170.54 -86.892)"/><path d="M410.55 125.65c-121.27 0-219.7 28.43-219.7 63.46s98.43 63.46 219.7 63.46c121.28 0 219.68-28.43 219.68-63.46s-98.4-63.46-219.68-63.46zm0 5.81c109.24 0 199.32 23.98 211.63 55.98-.89 32.63-95.34 59.03-211.63 59.03-116.28 0-210.76-26.4-211.65-59.03 12.3-32 102.42-55.98 211.65-55.98z" fill="url(#g)" transform="translate(-170.54 -86.892)"/><path d="M410.55 127.49c-116.84 0-211.69 26.65-211.69 59.49 0 .16.03.31.04.46 12.3-32 102.42-55.98 211.65-55.98 109.24 0 199.32 23.98 211.63 55.98 0-.15.03-.3.03-.46 0-32.84-94.81-59.49-211.66-59.49z" fill="url(#h)" transform="translate(-170.54 -86.892)"/><path d="m240 245.338-53.3 95.4 39.97-20.44v174.1s.89 10.9 13.33 10.9c12.91 0 13.32-10.9 13.32-10.9v-174.1l39.97 20.44-53.29-95.4z" opacity=".8" stroke="#2a6a47" stroke-width="4.903" fill="#278813"/></g></svg>