<svg xmlns="http://www.w3.org/2000/svg" xmlns:xlink="http://www.w3.org/1999/xlink" width="832.56" height="832.56"><defs><linearGradient xlink:href="#a" id="d" x1="-751.553" y1="1379.652" x2="-747.513" y2="401.811" gradientUnits="userSpaceOnUse"/><linearGradient id="a"><stop offset="0" stop-color="#fd5"/><stop offset="1" stop-color="#fea"/></linearGradient><linearGradient xlink:href="#a" id="f" gradientUnits="userSpaceOnUse" x1="-751.553" y1="1379.652" x2="-747.513" y2="401.811"/><linearGradient id="b"><stop offset="0" stop-color="#fd5"/><stop offset=".5" stop-color="#fea"/><stop offset="1" stop-color="#fd5"/></linearGradient><linearGradient y2="1213.482" x2="-488.914" y1="1294.799" x1="-414.668" gradientUnits="userSpaceOnUse" id="h" xlink:href="#b"/><filter color-interpolation-filters="sRGB" id="c"><feGaussianBlur stdDeviation="15.193"/></filter><filter color-interpolation-filters="sRGB" id="e"><feGaussianBlur stdDeviation="3.577"/></filter><filter color-interpolation-filters="sRGB" id="g"><feGaussianBlur stdDeviation="1.789"/></filter></defs><path filter="url(#c)" d="M-1074.883 625.976h759.635v759.635h-759.635z" transform="translate(1111.346 -589.514)"/><path fill="url(#d)" d="M-1082.883 615.976h759.635v759.635h-759.635z" transform="translate(1111.346 -589.514)"/><path fill="#fea" d="M28.463 26.462h759.635v125.26H28.463z"/><path d="m-500.486 1197.593.044 1.193c17.96 57.277 21.1 118.208 9.392 176.755l.044.928 84.698-84.699 84.654-84.653c-59.071 11.941-120.596 8.778-178.368-9.502l-.464-.022z" filter="url(#e)" transform="translate(1111.346 -589.514)"/><path d="M-1082.875 615.969v759.656h591.313l168.312-168.281V615.969h-759.625z" fill="url(#f)" transform="translate(1111.346 -589.514)"/><path transform="matrix(.97306 0 0 .97306 1100.213 -554.857)" d="m-502.629 1196.879.045 1.193c17.96 57.277 21.099 118.208 9.39 176.754l.045.928 84.698-84.698 84.654-84.654c-59.07 11.942-120.596 8.78-178.368-9.502l-.464-.022z" filter="url(#g)"/><path d="m-502.629 1196.879.045 1.193c17.96 57.277 21.099 118.208 9.39 176.754l.045.928 84.698-84.698 84.654-84.654c-59.07 11.942-120.596 8.78-178.368-9.502l-.464-.022z" fill="url(#h)" transform="translate(1111.346 -589.514)"/></svg>