<svg xmlns="http://www.w3.org/2000/svg" xmlns:xlink="http://www.w3.org/1999/xlink" viewBox="0 0 48 48"><defs><linearGradient id="e"><stop stop-color="#eeeeec"/><stop offset="1" stop-color="#d3d7cf"/></linearGradient><linearGradient id="a"><stop stop-color="#2e3436"/><stop offset="1" stop-color="#2e3436" stop-opacity="0"/></linearGradient><linearGradient id="b"><stop stop-color="#fff"/><stop offset="1" stop-color="#fff" stop-opacity="0"/></linearGradient><linearGradient id="d"><stop stop-color="#fff" stop-opacity=".8"/><stop offset="1" stop-color="#fff" stop-opacity="0"/></linearGradient><linearGradient id="c"><stop stop-color="#3465a4"/><stop offset="1" stop-color="#729fcf"/></linearGradient><linearGradient id="g"><stop stop-color="#204a87"/><stop offset="1" stop-color="#729fcf"/></linearGradient><linearGradient id="f"><stop stop-color="#2e3436"/><stop offset="1" stop-color="#555753"/></linearGradient><linearGradient x1="7.175" y1="-26.684" x2="21.857" y2="30.714" id="i" xlink:href="#b" gradientUnits="userSpaceOnUse" gradientTransform="translate(0 -.734)"/><linearGradient y1="19.862" x2="0" y2="4.143" id="j" xlink:href="#c" gradientUnits="userSpaceOnUse" gradientTransform="translate(0 -.734)"/><linearGradient y1="4.156" x2="0" y2="43.844" id="k" xlink:href="#d" gradientUnits="userSpaceOnUse"/><linearGradient y1="1.25" x2="0" y2="78.75" id="l" xlink:href="#e" gradientUnits="userSpaceOnUse"/><linearGradient y1="6.804" x2="0" y2="16.03" id="m" xlink:href="#f" gradientUnits="userSpaceOnUse" gradientTransform="translate(0 -.734)"/><linearGradient y1="6.804" x2="0" y2="16.03" id="n" xlink:href="#g" gradientUnits="userSpaceOnUse" gradientTransform="translate(0 -.734)"/><linearGradient x1="7.175" y1="-26.684" x2="27.344" y2="28.22" id="o" xlink:href="#b" gradientUnits="userSpaceOnUse" gradientTransform="translate(0 -.734)"/><radialGradient cx="29" cy="46.43" r="26.665" id="h" xlink:href="#a" gradientUnits="userSpaceOnUse" gradientTransform="matrix(1 0 0 .04 0 44.568)"/></defs><g transform="translate(0 2.36)"><path d="M55.666 46.426a26.665 1.067 0 1 1-53.33 0 26.665 1.067 0 1 1 53.33 0z" transform="matrix(.8819 0 0 1.38095 -1.576 -19.944)" opacity=".8" fill="url(#h)"/><path d="M7.031 3.422c-1.108 0-2 .892-2 2v23.406c12.294-4.6 25.662-9.084 37.938-12.437V5.422c0-1.108-.892-2-2-2H7.03z" opacity=".6" fill="url(#i)"/><path d="M7.031 2.36A3.066 3.066 0 0 0 3.97 5.422V41.11a3.066 3.066 0 0 0 3.062 3.062H40.97a3.066 3.066 0 0 0 3.062-3.062V5.422A3.066 3.066 0 0 0 40.97 2.36H7.03z" fill="#183768"/><path d="M5.031 5.64v35.47c0 1.108.892 2 2 2H40.97c1.108 0 2-.892 2-2V5.64a.13.13 0 0 1-.125.126H5.156a.13.13 0 0 1-.125-.125z" fill="#3465a4"/><rect width="37.909" height="39.714" x="5.05" y="3.409" fill="url(#j)" rx="2"/><path d="M7.031 4.656c-.83 0-1.5.67-1.5 1.5v35.688c0 .83.67 1.5 1.5 1.5H40.97c.83 0 1.5-.67 1.5-1.5V6.156c0-.83-.67-1.5-1.5-1.5H7.03z" transform="translate(0 -.734)" opacity=".8" fill="none" stroke="url(#k)"/><path d="m27.062 18.86-5.53.062a.999.999 0 0 0-.563.188c-.024-.002-.038-.031-.063-.032-.668-.014-1.377.264-1.906.75a.999.999 0 0 0-.156.188L16.5 23.578a.999.999 0 0 0 .344 1.407l.843.5-3.656.03a.999.999 0 0 0-.625 1.782l.688.563-.875 1.656v.031c-.449.82-.306 1.723.031 2.375a.999.999 0 0 0 0 .031.999.999 0 0 0 .094.688l2.906 5.344a.999.999 0 0 0 .094.156c.898 1.147 2.336 1.308 3.593 1.281H23a.999.999 0 0 0 1-1v-1.437l1.906 3.53a.999.999 0 0 0 1.875-.437l.031-.687h1.125v-.031c1.205.069 2.378-.507 2.97-1.657l.03-.031 2.625-4.969a.999.999 0 0 0 .125-.593c.017-.027.048-.036.063-.063.327-.578.413-1.307.25-2.031a.999.999 0 0 0-.094-.219l-1.937-3.812a.999.999 0 0 0-1.407-.407l-1.312.813 2.187-3.563a.999.999 0 0 0-1.312-1.406l-.594.313-.5-.97-.031-.062c-.52-1.123-1.588-1.882-2.906-1.843h-.032zm-2.875 5.718.313.532-.531.343a.999.999 0 0 0 .562 1.844l4.188.031-1.469.907a.999.999 0 0 0-.344 1.312l1.5 2.813h-.594l-.03-.625a.999.999 0 0 0-1.876-.407L24 34.797v-1.469a.999.999 0 0 0-1-1l-3.406-.031.562-.875.5.281A.999.999 0 0 0 22 30.36l-1.844-3.407 1.063.625a.999.999 0 0 0 1.343-.312l1.625-2.688z" fill="#204a87" fill-rule="evenodd"/><g fill-rule="evenodd" transform="matrix(.2605 0 0 .2605 13.58 19.546)" fill="url(#l)"><path d="m54.495 36.564 16.602-10.133 7.438 14.65c1.797 8.003-8.049 10.94-15.955 10.463l-8.085-14.98z"/><path d="m50.722 47.028-8.732 15.75 8.732 15.972.215-6.388h7.978c2.91.257 6.684-1.69 8.085-4.516L77.242 48.68c-3.378 3.415-7.722 4.296-12.721 4.296H51.045l-.323-5.948zM31.212 27.609l-16.73-9.912 8.925-13.755c5.977-5.49 13.27 1.88 16.699 9.173L31.212 27.61z"/><path d="m41.998 25.9 17.716.155 9.429-15.552-5.572 2.908L59.7 6.285c-1.193-2.725-4.69-5.151-7.789-5.03l-21.371.153c4.561 1.36 7.424 4.813 9.85 9.279l6.541 12.037-4.932 3.176zM1.68 26.788l5.184 4.05-4.879 9.346c-2.44 4.31 1.751 8.508 4.421 9.97 2.629 1.438 6.709 1.61 10.52 1.557l6.86-11.215L28.97 43.3l-8.995-16.668-18.295.156z"/><path d="m2.443 48.44 11.129 20.562c2.236 2.855 6.454 3.53 10.825 3.427h11.739V52.957l-22.26-.155c-3.455.207-7.978-.52-11.433-4.362z"/></g><rect width="31.14" height="8.231" x="8.43" y="6.57" fill="url(#m)" stroke="url(#n)" stroke-linecap="square" rx="1.612"/><path d="M7.031 3.422c-1.108 0-2 .892-2 2v23.406c12.294-4.6 25.662-9.084 37.938-12.437V5.422c0-1.108-.892-2-2-2H7.03zm3 3.656H37.97c.627 0 1.093.467 1.093 1.094v5.031c0 .628-.466 1.094-1.093 1.094H10.03a1.065 1.065 0 0 1-1.094-1.094V8.172c0-.627.467-1.094 1.094-1.094z" opacity=".6" fill="url(#o)"/></g></svg>