<svg xmlns="http://www.w3.org/2000/svg" xmlns:xlink="http://www.w3.org/1999/xlink" viewBox="0 0 48 48"><defs><linearGradient id="n"><stop stop-color="#2e3436" stop-opacity=".432"/><stop offset="1" stop-color="#888a85" stop-opacity=".187"/></linearGradient><linearGradient id="l"><stop stop-color="#babdb6"/><stop offset="1" stop-color="#888a85"/></linearGradient><linearGradient id="m"><stop stop-color="#eeeeec"/><stop offset="1" stop-color="#aeaea3"/></linearGradient><linearGradient id="c"><stop stop-color="#eeeeec"/><stop offset="1" stop-color="#d3d7cf"/></linearGradient><linearGradient id="a"><stop stop-color="#2e3436"/><stop offset="1" stop-color="#2e3436" stop-opacity="0"/></linearGradient><linearGradient id="e"><stop stop-color="#fff"/><stop offset="1" stop-color="#fff" stop-opacity="0"/></linearGradient><linearGradient id="b"><stop stop-color="#fff" stop-opacity=".8"/><stop offset="1" stop-color="#fff" stop-opacity="0"/></linearGradient><linearGradient id="f"><stop stop-color="#3465a4"/><stop offset="1" stop-color="#729fcf"/></linearGradient><linearGradient id="h"><stop stop-color="#204a87"/><stop offset="1" stop-color="#729fcf"/></linearGradient><linearGradient id="g"><stop stop-color="#2e3436"/><stop offset="1" stop-color="#555753"/></linearGradient><linearGradient y1="4.156" x2="0" y2="43.844" id="r" xlink:href="#b" gradientUnits="userSpaceOnUse"/><linearGradient y1="1.25" x2="0" y2="78.75" id="s" xlink:href="#c" gradientUnits="userSpaceOnUse"/><linearGradient id="d"><stop stop-color="#fff"/><stop offset="1" stop-color="#b0b0b0"/></linearGradient><linearGradient x1="7.175" y1="-26.684" x2="27.344" y2="28.22" id="v" xlink:href="#e" gradientUnits="userSpaceOnUse" gradientTransform="translate(0 1.625)"/><linearGradient y1="19.862" x2="0" y2="4.143" id="q" xlink:href="#f" gradientUnits="userSpaceOnUse" gradientTransform="translate(0 1.625)"/><linearGradient x1="7.175" y1="-26.684" x2="21.857" y2="30.714" id="p" xlink:href="#e" gradientUnits="userSpaceOnUse" gradientTransform="translate(0 1.625)"/><linearGradient y1="6.804" x2="0" y2="16.03" id="w" xlink:href="#g" gradientUnits="userSpaceOnUse" gradientTransform="translate(0 1.625)"/><linearGradient y1="6.804" x2="0" y2="16.03" id="x" xlink:href="#h" gradientUnits="userSpaceOnUse" gradientTransform="translate(0 1.625)"/><linearGradient id="j"><stop stop-color="#babdb6"/><stop offset="1" stop-color="#fff"/></linearGradient><linearGradient id="i"><stop/><stop offset="1" stop-opacity="0"/></linearGradient><linearGradient id="k"><stop stop-color="#fff"/><stop offset="1" stop-color="#aeaea3"/></linearGradient><linearGradient x1="25.633" y1="10.612" x2="38.714" y2="18.39" id="B" xlink:href="#i" gradientUnits="userSpaceOnUse" gradientTransform="matrix(-.3903 0 0 .3903 23.942 3.105)"/><linearGradient x1="24.366" y1="20.246" x2="32.601" y2="28.555" id="A" xlink:href="#j" gradientUnits="userSpaceOnUse" gradientTransform="matrix(-.3903 0 0 .3903 23.942 3.105)"/><linearGradient x1="22.01" y1="36.51" x2="23.585" y2="14.412" id="z" xlink:href="#j" gradientUnits="userSpaceOnUse" gradientTransform="matrix(-.3903 0 0 .3903 23.942 3.105)"/><linearGradient x1="22.01" y1="36.51" x2="23.585" y2="14.412" id="D" xlink:href="#j" gradientUnits="userSpaceOnUse" gradientTransform="matrix(-.2914 0 0 .2914 32.779 6.677)"/><linearGradient x1="24.366" y1="20.246" x2="32.601" y2="28.555" id="E" xlink:href="#j" gradientUnits="userSpaceOnUse" gradientTransform="matrix(-.2914 0 0 .2914 32.779 6.677)"/><linearGradient x1="25.633" y1="10.612" x2="38.714" y2="18.39" id="F" xlink:href="#i" gradientUnits="userSpaceOnUse" gradientTransform="matrix(-.2914 0 0 .2914 32.779 6.677)"/><linearGradient x1="22.01" y1="36.51" x2="23.585" y2="14.412" id="H" xlink:href="#j" gradientUnits="userSpaceOnUse" gradientTransform="matrix(0 .21516 .21516 0 28.353 13.814)"/><linearGradient x1="24.366" y1="20.246" x2="32.601" y2="28.555" id="I" xlink:href="#l" gradientUnits="userSpaceOnUse" gradientTransform="matrix(0 .21516 .21516 0 29.08 10.432)"/><linearGradient x1="55.21" y1="29.971" x2="38.714" y2="18.39" id="J" xlink:href="#i" gradientUnits="userSpaceOnUse" gradientTransform="matrix(0 .21516 .21516 0 31.225 7.291)"/><radialGradient cx="29" cy="46.43" r="26.665" id="o" xlink:href="#a" gradientUnits="userSpaceOnUse" gradientTransform="matrix(1 0 0 .04 0 44.568)"/><radialGradient cx="29.443" cy="14.817" r="22.597" id="y" xlink:href="#k" gradientUnits="userSpaceOnUse" gradientTransform="matrix(-.83354 0 0 .82376 34.441 -3.01)"/><radialGradient cx="29.443" cy="14.817" r="22.597" id="C" xlink:href="#k" gradientUnits="userSpaceOnUse" gradientTransform="matrix(-.62232 0 0 .61501 40.618 2.111)"/><radialGradient cx="16.1" cy="18.734" r="22.597" id="G" xlink:href="#m" gradientUnits="userSpaceOnUse" gradientTransform="matrix(0 .4595 .45412 0 26.427 5.325)"/><radialGradient cx="24.11" cy="15.393" r="17.898" id="t" xlink:href="#n" gradientUnits="userSpaceOnUse" gradientTransform="matrix(1 0 0 .53485 0 5.848)"/><filter x="-.244" y="-.457" width="1.489" height="1.914" color-interpolation-filters="sRGB" id="u"><feGaussianBlur stdDeviation="3.644"/></filter></defs><path d="M55.666 46.426a26.665 1.067 0 1 1-53.33 0 26.665 1.067 0 1 1 53.33 0z" transform="matrix(.8819 0 0 1.38095 -1.576 -17.584)" opacity=".8" fill="url(#o)"/><path d="M7.031 5.782c-1.108 0-2 .892-2 2v23.406c12.294-4.6 25.662-9.085 37.938-12.438V7.782c0-1.108-.892-2-2-2H7.03z" opacity=".6" fill="url(#p)"/><path d="M7.031 4.719A3.066 3.066 0 0 0 3.97 7.782v35.687a3.066 3.066 0 0 0 3.062 3.063H40.97a3.066 3.066 0 0 0 3.062-3.063V7.782a3.066 3.066 0 0 0-3.062-3.063H7.03z" fill="#183768"/><path d="M5.031 8V43.47c0 1.108.892 2 2 2H40.97c1.108 0 2-.892 2-2V8a.13.13 0 0 1-.125.125H5.156A.13.13 0 0 1 5.031 8z" fill="#3465a4"/><rect width="37.909" height="39.714" x="5.05" y="5.768" fill="url(#q)" rx="2"/><path d="M7.031 4.656c-.83 0-1.5.67-1.5 1.5v35.688c0 .83.67 1.5 1.5 1.5H40.97c.83 0 1.5-.67 1.5-1.5V6.156c0-.83-.67-1.5-1.5-1.5H7.03z" transform="translate(0 1.625)" opacity=".8" fill="none" stroke="url(#r)"/><path d="m27.062 21.219-5.53.063a.999.999 0 0 0-.563.187c-.024-.001-.038-.03-.063-.031-.668-.014-1.377.264-1.906.75a.999.999 0 0 0-.156.187L16.5 25.938a.999.999 0 0 0 .344 1.406l.843.5-3.656.031a.999.999 0 0 0-.625 1.782l.688.562-.875 1.656v.032c-.449.82-.306 1.723.031 2.375a.999.999 0 0 0 0 .03.999.999 0 0 0 .094.688l2.906 5.344a.999.999 0 0 0 .094.156c.898 1.147 2.336 1.308 3.593 1.282H23a.999.999 0 0 0 1-1v-1.438l1.906 3.531a.999.999 0 0 0 1.875-.437l.031-.688h1.125v-.031c1.205.07 2.378-.506 2.97-1.656l.03-.031 2.625-4.97a.999.999 0 0 0 .125-.593c.017-.026.048-.035.063-.062.327-.578.413-1.307.25-2.032a.999.999 0 0 0-.094-.218l-1.937-3.813a.999.999 0 0 0-1.407-.406l-1.312.812 2.187-3.562a.999.999 0 0 0-1.312-1.406l-.594.312-.5-.969-.031-.062c-.52-1.123-1.588-1.882-2.906-1.844h-.032zm-2.875 5.719.313.531-.531.344a.999.999 0 0 0 .562 1.844l4.188.03-1.469.907a.999.999 0 0 0-.344 1.313l1.5 2.812h-.594l-.03-.625a.999.999 0 0 0-1.876-.406L24 37.157v-1.47a.999.999 0 0 0-1-1l-3.406-.03.562-.875.5.28A.999.999 0 0 0 22 32.72l-1.844-3.406 1.063.625a.999.999 0 0 0 1.343-.313l1.625-2.687z" fill="#204a87" fill-rule="evenodd"/><g fill-rule="evenodd" transform="matrix(.2605 0 0 .2605 13.58 21.906)" fill="url(#s)"><path d="m54.495 36.564 16.602-10.133 7.438 14.65c1.797 8.003-8.049 10.94-15.955 10.463l-8.085-14.98z"/><path d="m50.722 47.028-8.732 15.75 8.732 15.972.215-6.388h7.978c2.91.257 6.684-1.69 8.085-4.516L77.242 48.68c-3.378 3.415-7.722 4.296-12.721 4.296H51.045l-.323-5.948zM31.212 27.609l-16.73-9.912 8.925-13.755c5.977-5.49 13.27 1.88 16.699 9.173L31.212 27.61z"/><path d="m41.998 25.9 17.716.155 9.429-15.552-5.572 2.908L59.7 6.285c-1.193-2.725-4.69-5.151-7.789-5.03l-21.371.153c4.561 1.36 7.424 4.813 9.85 9.279l6.541 12.037-4.932 3.176zM1.68 26.788l5.184 4.05-4.879 9.346c-2.44 4.31 1.751 8.508 4.421 9.97 2.629 1.438 6.709 1.61 10.52 1.557l6.86-11.215L28.97 43.3l-8.995-16.668-18.295.156z"/><path d="m2.443 48.44 11.129 20.562c2.236 2.855 6.454 3.53 10.825 3.427h11.739V52.957l-22.26-.155c-3.455.207-7.978-.52-11.433-4.362z"/></g><path d="M12.156 3a.898.898 0 0 0-.875.625l-1 3.125-2.594 2.281a.885.885 0 0 0-.312.688l.063 1.25a.229.229 0 0 0 0 .031c.008.055.043.104.062.156-.102.071-.215.112-.281.219L6.25 13l-.531-.094c-.373-.034-.774.144-.938.5-.163.356-.056.765.219 1.031l.906.813a.229.229 0 0 0 0 .031c.13.112.302.132.469.156l-.625.688a.229.229 0 0 0-.031 0c-.3.353-.26.887.062 1.219l1.063 1.062-.313.657a.944.944 0 0 0 .063.843c.154.258.408.382.687.407l2.219.25c.172.02.344.012.5-.063a.229.229 0 0 0 0-.031l.938-.5.874 1.437c.156.245.429.39.72.407a.88.88 0 0 0 .75-.313.229.229 0 0 0 0-.031l1.187-1.594 3.844-.281.75.625a.915.915 0 0 0 .968.125l1.157-.5h.03l.75.093c.173.021.345.013.5-.062a.229.229 0 0 0 .032-.031l.469-.25.562.875c.156.245.428.39.719.406a.88.88 0 0 0 .75-.313.229.229 0 0 0 0-.03l.844-1.095 2.718-.218.47.406h.03a.924.924 0 0 0 .907.125l1.062-.469c.153-.076.256-.231.344-.375l.188.063 1.187 1.375c.133.166.325.24.531.281l.188.219a.229.229 0 0 0 .031 0c.171.176.4.281.656.281a.78.78 0 0 0 .469-.156l.188.093v.032a.934.934 0 0 0 .5.968c.358.175.764.061 1.03-.218l.376-.375c.353.299.886.26 1.218-.063l.376-.375.062.032c.26.13.55.135.813 0 .262-.136.426-.413.468-.688l.157-1.219a.855.855 0 0 0-.063-.531l-.094-.219.469-.281a.89.89 0 0 0 .375-.719.907.907 0 0 0-.344-.75l-.718-.531-.126-1.75.25-.313a.915.915 0 0 0 .126-.968l-.344-.781a.92.92 0 0 0-.563-.5.906.906 0 0 0-.718.093L38 11.812a.874.874 0 0 0-.625-.312.229.229 0 0 0-.031 0l-.657-.031c-.122-.001-.232.047-.343.094l-.032-.032a.931.931 0 0 0-1.03-.312c-.01.003-.022-.004-.032 0l-.094-.094c-.164-.203-.426-.303-.687-.313H32.875a.895.895 0 0 0-.25-.562l-1.406-1.5a.86.86 0 0 0-.657-.281.946.946 0 0 0-.687.312l-.094.125c-.052-.018-.101-.053-.156-.062l-.875-.063a.229.229 0 0 0-.031 0h-.063l-.343-.812a.898.898 0 0 0-.594-.532l-3.5-1.03A.906.906 0 0 0 23.094 7l-.157.5-1.312-1.406a.86.86 0 0 0-.656-.282.946.946 0 0 0-.688.313L20 6.438a.842.842 0 0 0-.344-.125.229.229 0 0 0-.031 0l-1.156-.063a.229.229 0 0 0-.032 0c-.07.005-.12.041-.187.063l-.563-1.375a.898.898 0 0 0-.593-.532l-4.688-1.375a.886.886 0 0 0-.25-.031z" transform="translate(0 5)" fill="url(#t)" filter="url(#u)" fill-rule="evenodd"/><path d="M7.031 5.782c-1.108 0-2 .892-2 2v23.406c12.294-4.6 25.662-9.085 37.938-12.438V7.782c0-1.108-.892-2-2-2H7.03zm3 3.656H37.97c.627 0 1.093.466 1.093 1.094v5.03c0 .628-.466 1.095-1.093 1.095H10.03a1.065 1.065 0 0 1-1.094-1.094v-5.031c0-.628.467-1.094 1.094-1.094z" opacity=".6" fill="url(#v)"/><rect width="31.14" height="8.231" x="8.43" y="8.929" fill="url(#w)" stroke="url(#x)" stroke-linecap="square" rx="1.612"/><path d="M12.156 3a.898.898 0 0 0-.875.625l-1 3.125-2.594 2.281a.885.885 0 0 0-.312.688l.063 1.25a.229.229 0 0 0 0 .031c.008.055.043.104.062.156-.102.071-.215.112-.281.219L6.25 13l-.531-.094c-.373-.034-.774.144-.938.5-.163.356-.056.765.219 1.031l.906.813a.229.229 0 0 0 0 .031c.13.112.302.132.469.156l-.625.688a.229.229 0 0 0-.031 0c-.3.353-.26.887.062 1.219l1.063 1.062-.313.657a.944.944 0 0 0 .063.843c.154.258.408.382.687.407l2.219.25c.172.02.344.012.5-.063a.229.229 0 0 0 0-.031l.938-.5.874 1.437c.156.245.429.39.72.407a.88.88 0 0 0 .75-.313.229.229 0 0 0 0-.031l1.187-1.594 3.844-.281.75.625a.915.915 0 0 0 .968.125l1.157-.5h.03l.75.093c.173.021.345.013.5-.062a.229.229 0 0 0 .032-.031l.469-.25.562.875c.156.245.428.39.719.406a.88.88 0 0 0 .75-.313.229.229 0 0 0 0-.03l.844-1.095 2.718-.218.47.406h.03a.924.924 0 0 0 .907.125l1.062-.469c.153-.076.256-.231.344-.375l.188.063 1.187 1.375c.133.166.325.24.531.281l.188.219a.229.229 0 0 0 .031 0c.171.176.4.281.656.281a.78.78 0 0 0 .469-.156l.188.093v.032a.934.934 0 0 0 .5.968c.358.175.764.061 1.03-.218l.376-.375c.353.299.886.26 1.218-.063l.376-.375.062.032c.26.13.55.135.813 0 .262-.136.426-.413.468-.688l.157-1.219a.855.855 0 0 0-.063-.531l-.094-.219.469-.281a.89.89 0 0 0 .375-.719.907.907 0 0 0-.344-.75l-.718-.531-.126-1.75.25-.313a.915.915 0 0 0 .126-.968l-.344-.781a.92.92 0 0 0-.563-.5.906.906 0 0 0-.718.093L38 11.812a.874.874 0 0 0-.625-.312.229.229 0 0 0-.031 0l-.657-.031c-.122-.001-.232.047-.343.094l-.032-.032a.931.931 0 0 0-1.03-.312c-.01.003-.022-.004-.032 0l-.094-.094c-.164-.203-.426-.303-.687-.313H32.875a.895.895 0 0 0-.25-.562l-1.406-1.5a.86.86 0 0 0-.657-.281.946.946 0 0 0-.687.312l-.094.125c-.052-.018-.101-.053-.156-.062l-.875-.063a.229.229 0 0 0-.031 0h-.063l-.343-.812a.898.898 0 0 0-.594-.532l-3.5-1.03A.906.906 0 0 0 23.094 7l-.157.5-1.312-1.406a.86.86 0 0 0-.656-.282.946.946 0 0 0-.688.313L20 6.438a.842.842 0 0 0-.344-.125.229.229 0 0 0-.031 0l-1.156-.063a.229.229 0 0 0-.032 0c-.07.005-.12.041-.187.063l-.563-1.375a.898.898 0 0 0-.593-.532l-4.688-1.375a.886.886 0 0 0-.25-.031z" fill="#888a85" fill-rule="evenodd"/><path d="m20.423 17.768.69 1.104-1.449.621-1.035-.828-4.622.345-1.45 1.932-1.31-2.139-1.656.897-2.208-.276.552-1.173-1.518-1.517 2.139-2.415-2.07.276-.897-.828 1.173.207 1.242-2.14 1.794-.413-1.45-.483-.068-1.242 2.829-2.484 1.035-3.311 4.691 1.38 1.173 2.76.414-.898 1.173.07v1.103l1.38-1.587 1.863 2.001v2.829l-3.243 2.829 2.07 1.173-.069 1.173-1.173 1.034z" fill="url(#y)" fill-rule="evenodd"/><path d="m16.352 11.973.345 2.553-.828 1.31 1.794.553 1.035 2.07-4.691.344-1.104 1.587-.897-2.415 1.725-1.103 2.621.759-1.035-1.38.552-2.415.483-1.863z" opacity=".77" fill="url(#z)" fill-rule="evenodd"/><path d="m15.938 12.387-1.724 2.69-2.83-1.931-1.724.966-1.38-1.173-1.242 1.104 1.173-1.932 2.69-.621 3.381-1.656s4.83 1.449 4.554 1.449c-.276 0-4.002.069-4.002.069l-.62-.897-1.656.759 3.38 1.173z" opacity=".618" fill="url(#A)" fill-rule="evenodd"/><path d="m12.42 4.452 4.07 1.38.552 1.518-2.346 1.656-2.207-2.139-.07-2.415z" fill="#fff" fill-rule="evenodd"/><path d="m12.35 4.59-.896 2.898-1.656 1.45 3.38-.76s.967 1.104.553 1.104c-.414 0-4.9.552-4.9.552l.07.897 6.347-1.173-2.76-2.553-.137-2.415z" opacity=".135" fill="url(#B)" fill-rule="evenodd"/><path d="m21.565 7.967-.176 4.144-1.338-1.651-1.422-.074-.483-1.035-2.415.345-.552-.483 3.52-.138.344.966 1.518-.759 1.004-1.315zM15.18 13.767l-1.173 1.38-2.691-1.794-1.656.897-2.691 2.553 2.967-2.277 1.622.512 2.656 1.006.965-2.277z" fill="#fff" fill-rule="evenodd"/><path d="m30.152 17.625.515.824-1.082.464-.773-.619-3.45.258-1.083 1.442-.978-1.597-1.237.67-1.648-.206.007-.818-.728-1.19.902-1.688-.85.09-.67-.618.354-.308.638-1.308 1.166.154-1.776-.129 1.627-1.448 1.996-1.044.888-3.283 3.503 1.03.876 2.06.309-.669.876.052v.824l1.03-1.185 1.39 1.494v2.112l-2.42 2.112 1.545.875-.052.876-.875.773z" fill="url(#C)" fill-rule="evenodd"/><path d="m27.113 13.298.257 1.906-.618.978 1.34.413.772 1.545-3.503.257-.824 1.185-.67-1.803 1.288-.824 1.958.567-.773-1.03.412-1.803.36-1.391z" opacity=".77" fill="url(#D)" fill-rule="evenodd"/><path d="m26.803 13.607-1.287 2.009-2.112-1.443-1.288.722-1.03-.876-.928.824.876-1.442 2.01-.464 2.523-1.236s3.606 1.082 3.4 1.082c-.206 0-2.988.051-2.988.051l-.463-.67-1.237.567 2.524.876z" opacity=".618" fill="url(#E)" fill-rule="evenodd"/><path d="m24.176 7.683 3.04 1.03.412 1.134-1.752 1.236-1.648-1.597-.052-1.803z" fill="#eeeeec" fill-rule="evenodd"/><path d="m24.125 7.786-.67 2.164-1.236 1.081 2.524-.566s.721.824.412.824-3.657.412-3.657.412l.051.67 4.74-.876-2.061-1.906-.103-1.803z" opacity=".135" fill="url(#F)" fill-rule="evenodd"/><path d="m37.882 13.053.609-.38.342.799-.456.57.19 2.549 1.065.798-1.18.723.495.913-.152 1.217-.646-.304-.837.836-1.331-1.179.152 1.141-.457.495.114-.647-1.179-.684-.228-.99-.266.8-.685.038-1.37-1.56-1.825-.57-.802-2.124c-.33-.673.57.305-.504-1.167l1.01-.113.038-.82.724-.058 1.094-.587 1.103-1.027h1.56l1.559 1.788.646-1.141.647.038.57.646z" fill="url(#G)" fill-rule="evenodd"/><path d="m33.242 17.998 1.407-.19.723.456.304-.989 1.141-.57.19 2.586.875.609-1.33.494-.61-.95.419-1.446-.76.57-1.332-.304-1.027-.266z" opacity=".77" fill="url(#H)" fill-rule="evenodd"/><path d="m34.196 14.844 1.483.951-1.065 1.56.533.95-.647.761.609.685-1.065-.647-.342-1.483-.913-1.864s.798-2.662.798-2.51c0 .152.039 2.206.039 2.206l-.495.342.418.913.647-1.864z" opacity=".618" fill="url(#I)" fill-rule="evenodd"/><path d="m33.965 14.613.76-2.244.837-.305.913 1.294-1.18 1.217-1.33.038z" fill="#d3d7cf" fill-rule="evenodd"/><path d="m32.044 13.68 1.597.495.8.913-.42-1.863s.61-.533.61-.305c0 .228.304 2.7.304 2.7l.494-.037-.647-3.5-1.407 1.522-1.331.076z" opacity=".135" fill="url(#J)" fill-rule="evenodd"/></svg>